<svg width="1169" height="334" viewBox="0 0 1169 334" fill="none" xmlns="http://www.w3.org/2000/svg">
<path d="M1041.5 16.8187C830.323 -6.32358 338.546 -4.87725 118.693 16.8187C-51.9828 57.3182 -1.35866 160.013 43.4798 207.744C43.4798 235.226 24.6766 293.082 83.9791 304.653C118.693 326.349 728.111 330.206 1041.5 311.885C1142.17 308.414 1129.73 248.243 1121.05 207.744C1232.42 94.9247 1121.05 25.5367 1041.5 16.8187Z" fill="#FFFBE7"/>
<path d="M567.193 301.178C558.104 301.758 559.861 309.638 561.875 313.505C565.823 317.856 574.831 327.477 579.279 331.151C583.727 334.825 588.223 332.682 589.915 331.151C593.621 327.042 602.001 317.76 605.868 313.505C610.896 303.837 604.74 301.258 601.034 301.178C588.948 303.837 576.862 303.837 567.193 301.178Z" fill="#FFB400"/>
</svg>
