<svg width="95" height="95" viewBox="0 0 95 95" fill="none" xmlns="http://www.w3.org/2000/svg">
<g filter="url(#filter0_dd_301_370)">
<circle cx="50" cy="45" r="35" fill="#2A1A5E"/>
</g>
<g clip-path="url(#clip0_301_370)">
<rect width="48" height="48" transform="translate(26 21)" fill="#2A1A5E"/>
<path d="M62 47H52V57C52 58.1 51.1 59 50 59C48.9 59 48 58.1 48 57V47H38C36.9 47 36 46.1 36 45C36 43.9 36.9 43 38 43H48V33C48 31.9 48.9 31 50 31C51.1 31 52 31.9 52 33V43H62C63.1 43 64 43.9 64 45C64 46.1 63.1 47 62 47Z" fill="#B69CFF"/>
</g>
<defs>
<filter id="filter0_dd_301_370" x="0" y="0" width="95" height="95" filterUnits="userSpaceOnUse" color-interpolation-filters="sRGB">
<feFlood flood-opacity="0" result="BackgroundImageFix"/>
<feColorMatrix in="SourceAlpha" type="matrix" values="0 0 0 0 0 0 0 0 0 0 0 0 0 0 0 0 0 0 127 0" result="hardAlpha"/>
<feOffset dx="-5"/>
<feGaussianBlur stdDeviation="5"/>
<feColorMatrix type="matrix" values="0 0 0 0 0 0 0 0 0 0 0 0 0 0 0 0 0 0 0.4 0"/>
<feBlend mode="normal" in2="BackgroundImageFix" result="effect1_dropShadow_301_370"/>
<feColorMatrix in="SourceAlpha" type="matrix" values="0 0 0 0 0 0 0 0 0 0 0 0 0 0 0 0 0 0 127 0" result="hardAlpha"/>
<feOffset dy="5"/>
<feGaussianBlur stdDeviation="5"/>
<feColorMatrix type="matrix" values="0 0 0 0 0 0 0 0 0 0 0 0 0 0 0 0 0 0 0.4 0"/>
<feBlend mode="normal" in2="effect1_dropShadow_301_370" result="effect2_dropShadow_301_370"/>
<feBlend mode="normal" in="SourceGraphic" in2="effect2_dropShadow_301_370" result="shape"/>
</filter>
<clipPath id="clip0_301_370">
<rect width="48" height="48" fill="white" transform="translate(26 21)"/>
</clipPath>
</defs>
</svg>
